<svg width="196" height="263" viewBox="0 0 196 263" fill="none" xmlns="http://www.w3.org/2000/svg">
<path d="M155.5 39V85V111V217.25H125.6C122.323 217.25 119.484 214.977 118.769 211.779L98.3353 120.467C97.5156 116.804 98.816 112.991 101.703 110.592L121.674 93.9966C128.532 88.297 132.5 79.8413 132.5 70.9234V39H155.5Z" fill="#871A85"/>
<path d="M155.5 39V85V111V217.25H125.6C122.323 217.25 119.484 214.977 118.769 211.779L98.3353 120.467C97.5156 116.804 98.816 112.991 101.703 110.592L121.674 93.9966C128.532 88.297 132.5 79.8413 132.5 70.9234V39H155.5Z" fill="#871A85"/>
<path d="M137.746 39V85V111V217.25H167.647C170.924 217.25 173.762 214.977 174.478 211.779L194.911 120.467C195.731 116.804 194.43 112.991 191.544 110.592L171.573 93.9966C164.714 88.297 160.746 79.8413 160.746 70.9234V39H137.746Z" fill="#871A85"/>
<path d="M137.746 39V85V111V217.25H167.647C170.924 217.25 173.762 214.977 174.478 211.779L194.911 120.467C195.731 116.804 194.43 112.991 191.544 110.592L171.573 93.9966C164.714 88.297 160.746 79.8413 160.746 70.9234V39H137.746Z" fill="#871A85"/>
<rect x="129" y="8" width="35" height="35" rx="5" fill="#871A85"/>
<path d="M57.4064 31V77V103V209.25H27.506C24.229 209.25 21.3906 206.977 20.675 203.779L0.241664 112.467C-0.577966 108.804 0.72242 104.991 3.60913 102.592L23.58 85.9966C30.4388 80.297 34.4064 71.8413 34.4064 62.9234V31H57.4064Z" fill="#871A85"/>
<path d="M57.4064 31V77V103V209.25H27.506C24.229 209.25 21.3906 206.977 20.675 203.779L0.241664 112.467C-0.577966 108.804 0.72242 104.991 3.60913 102.592L23.58 85.9966C30.4388 80.297 34.4064 71.8413 34.4064 62.9234V31H57.4064Z" fill="#871A85"/>
<path d="M39.6529 31V77V103V209.25H69.5533C72.8303 209.25 75.6687 206.977 76.3843 203.779L96.8176 112.467C97.6372 108.804 96.3369 104.991 93.4502 102.592L73.4793 85.9966C66.6204 80.297 62.6529 71.8413 62.6529 62.9234V31H39.6529Z" fill="#871A85"/>
<path d="M39.6529 31V77V103V209.25H69.5533C72.8303 209.25 75.6687 206.977 76.3843 203.779L96.8176 112.467C97.6372 108.804 96.3369 104.991 93.4502 102.592L73.4793 85.9966C66.6204 80.297 62.6529 71.8413 62.6529 62.9234V31H39.6529Z" fill="#871A85"/>
<path d="M30.9064 5C30.9064 2.23858 33.145 0 35.9064 0H60.9064C63.6678 0 65.9064 2.23858 65.9064 5V30C65.9064 32.7614 63.6678 35 60.9064 35H35.9064C33.145 35 30.9064 32.7614 30.9064 30V5Z" fill="#871A85"/>
<path d="M74.4064 78C74.4064 81.1097 75.7583 83.9038 77.9064 85.8264V110.923C77.9064 118.206 74.6662 125.112 69.0648 129.767L49.094 146.362C44.6196 150.08 42.604 155.991 43.8744 161.668L64.3077 252.98C65.5856 258.69 70.6542 262.75 76.506 262.75H83.1529H88.6529H106.406H111.906H118.553C124.405 262.75 129.474 258.69 130.752 252.98L151.185 161.668C152.455 155.991 150.44 150.08 145.965 146.362L125.994 129.767C120.393 125.112 117.153 118.206 117.153 110.923V85.5986C119.157 83.6864 120.406 80.9891 120.406 78V53C120.406 47.201 115.705 42.5 109.906 42.5H84.9064C79.1074 42.5 74.4064 47.201 74.4064 53V78Z" fill="#871A85" stroke="white" stroke-width="11"/>
</svg>
