<svg width="99" height="210" viewBox="0 0 99 210" fill="none" xmlns="http://www.w3.org/2000/svg">
<path d="M59 31V77V103V209.25H29.0996C25.8226 209.25 22.9842 206.977 22.2686 203.779L1.83525 112.467C1.01562 108.804 2.31601 104.991 5.20272 102.592L25.1735 85.9966C32.0324 80.297 36 71.8413 36 62.9234V31H59Z" fill="#871A85"/>
<path d="M59 31V77V103V209.25H29.0996C25.8226 209.25 22.9842 206.977 22.2686 203.779L1.83525 112.467C1.01562 108.804 2.31601 104.991 5.20272 102.592L25.1735 85.9966C32.0324 80.297 36 71.8413 36 62.9234V31H59Z" fill="#871A85"/>
<path d="M41.2465 31V77V103V209.25H71.1469C74.4239 209.25 77.2623 206.977 77.9779 203.779L98.4112 112.467C99.2308 108.804 97.9305 104.991 95.0437 102.592L75.0729 85.9966C68.214 80.297 64.2465 71.8413 64.2465 62.9234V31H41.2465Z" fill="#871A85"/>
<path d="M41.2465 31V77V103V209.25H71.1469C74.4239 209.25 77.2623 206.977 77.9779 203.779L98.4112 112.467C99.2308 108.804 97.9305 104.991 95.0437 102.592L75.0729 85.9966C68.214 80.297 64.2465 71.8413 64.2465 62.9234V31H41.2465Z" fill="#871A85"/>
<rect x="32.5" width="35" height="35" rx="5" fill="#871A85"/>
</svg>
