<svg width="108" height="94" viewBox="0 0 108 94" fill="none" xmlns="http://www.w3.org/2000/svg">
<path d="M10 0H57C58.6569 0 60 1.34315 60 3V10H10V0Z" fill="#871A85"/>
<path d="M10 84H60V91C60 92.6569 58.6569 94 57 94H10V84Z" fill="#871A85"/>
<path d="M0 3C0 1.34315 1.34315 0 3 0H10V94H3C1.34315 94 0 92.6569 0 91V3Z" fill="#871A85"/>
<path d="M50 10H60V19C60 20.6569 58.6569 22 57 22H53C51.3431 22 50 20.6569 50 19V10Z" fill="#871A85"/>
<path d="M60 84L50 84L50 75C50 73.3431 51.3431 72 53 72L57 72C58.6569 72 60 73.3431 60 75L60 84Z" fill="#871A85"/>
<rect x="34" y="42" width="31" height="10" rx="3" fill="#871A85"/>
<path d="M105.879 44.8787C107.05 46.0503 107.05 47.9497 105.879 49.1213L76.1213 78.8787C74.2314 80.7686 71 79.4301 71 76.7574L71 17.2426C71 14.5699 74.2314 13.2314 76.1213 15.1213L105.879 44.8787Z" fill="#871A85"/>
</svg>
