<svg width="110" height="85" viewBox="0 0 110 85" fill="none" xmlns="http://www.w3.org/2000/svg">
<path d="M36 4C36 1.79086 37.7909 0 40 0H106C108.209 0 110 1.79086 110 4V17C110 19.2091 108.209 21 106 21H40C37.7909 21 36 19.2091 36 17V4Z" fill="#871A85"/>
<path d="M36 36C36 33.7909 37.7909 32 40 32H106C108.209 32 110 33.7909 110 36V49C110 51.2091 108.209 53 106 53H40C37.7909 53 36 51.2091 36 49V36Z" fill="#871A85"/>
<path d="M36 67.5C36 65.2909 37.7909 63.5 40 63.5H106C108.209 63.5 110 65.2909 110 67.5V80.5C110 82.7091 108.209 84.5 106 84.5H40C37.7909 84.5 36 82.7091 36 80.5V67.5Z" fill="#871A85"/>
<circle cx="11.5" cy="11.5" r="11.5" fill="#871A85"/>
<circle cx="11.5" cy="42.5" r="11.5" fill="#871A85"/>
<circle cx="11.5" cy="73.5" r="11.5" fill="#871A85"/>
</svg>
