<svg width="97" height="188" viewBox="0 0 97 188" fill="none" xmlns="http://www.w3.org/2000/svg">
<g clip-path="url(#clip0)">
<path d="M27.1432 34.6316C28.5913 33.0744 30.864 32.1579 33.2775 32.1579H63.9495C66.363 32.1579 68.6357 33.0744 70.0838 34.6316L95.6386 58.1316C97.5345 60.1699 97.092 63.0789 93.9328 63.0789H3.06719C-0.0921944 63.0789 -0.307289 60.1699 1.58834 58.1316L27.1432 34.6316Z" fill="#871A85"/>
<path d="M29.4436 6.18421C29.4436 2.76876 32.8767 0 37.1116 0H60.1155C64.3505 0 67.7835 2.76877 67.7835 6.18421V24.7368C67.7835 28.1523 64.3505 30.9211 60.1155 30.9211H37.1116C32.8767 30.9211 29.4436 28.1523 29.4436 24.7368V6.18421Z" fill="#871A85"/>
<path d="M91.8241 64.4704C95.3122 64.4704 97.0924 64.4664 96.6166 67.2533L80.877 182.659C80.3544 185.72 72.5978 188 68.7668 188H28.4602C24.6294 188 16.2521 185.72 15.7297 182.659L0.958453 67.2533C0.482742 64.4664 2.07125 64.4704 5.55924 64.4704H91.8241Z" fill="#871A85"/>
</g>
<defs>
<clipPath id="clip0">
<rect width="97" height="188" fill="white"/>
</clipPath>
</defs>
</svg>
